<?xml version="1.0" encoding="utf-8"?>
<!-- Svg Vector Icons : http://www.onlinewebfonts.com/icon -->
<!DOCTYPE svg PUBLIC "-//W3C//DTD SVG 1.1//EN" "http://www.w3.org/Graphics/SVG/1.1/DTD/svg11.dtd">
<svg version="1.1" xmlns="http://www.w3.org/2000/svg" xmlns:xlink="http://www.w3.org/1999/xlink" x="0px" y="0px" viewBox="0 0 1000 1000" enable-background="new 0 0 1000 1000" xml:space="preserve">
<metadata> Svg Vector Icons : http://www.onlinewebfonts.com/icon </metadata>
<g><g transform="translate(0.000000,511.000000) scale(0.100000,-0.100000)"><path d="M4379.4,3109.6c-353.7-920.9-645.9-1680.2-647.9-1682.1c-1.9-3.8-776.7-50-1722.5-100c-943.9-51.9-1759-96.1-1812.9-100l-96.1-5.8L1464.9,108.6c751.7-611.3,1380.3-1128.5,1399.5-1145.8c40.4-38.5,80.7,119.2-526.7-2128.2c-199.9-740.1-363.3-1359.2-363.3-1370.7c0-13.5,15.4-19.2,34.6-15.4c17.3,5.8,699.8,444.1,1516.8,974.7l1484.1,963.1l1495.7-970.8c822.8-532.5,1497.6-963.1,1501.4-955.5c1.9,7.7-203.8,788.2-459.5,1732.1c-253.8,943.9-457.6,1726.3-453.7,1739.8c5.8,13.5,646,528.7,1424.6,1147.7c1067,845.9,1405.3,1126.6,1380.3,1136.2c-17.3,5.8-822.8,53.8-1787.9,105.7c-967,50-1762.9,96.1-1772.5,101.9c-7.7,5.8-301.8,757.4-653.6,1672.5c-349.9,915.1-642.1,1668.7-649.8,1676.4C5027.2,4780.2,4731.2,4032.3,4379.4,3109.6z M5557.8,2663.6c280.7-719,534.4-1357.3,563.3-1416.9l51.9-111.5h153.8c201.9,0,2877.9-148,2887.5-159.6C9222,968,7070.8-777.6,6903.6-900.7l-61.5-44.2l94.2-359.5c51.9-196.1,226.9-855.5,390.3-1463c163.4-607.5,294.1-1109.3,290.3-1113.1c-3.8-3.8-551.7,344.1-1215,772.8c-663.2,428.7-1243.8,795.9-1288,819l-82.7,40.4V869.9c0,1714.8,3.9,3112.4,7.7,3108.6C5044.5,3974.7,5277.1,3382.6,5557.8,2663.6z"/></g></g>
</svg>