<?xml version="1.0" encoding="utf-8"?>
<!-- Svg Vector Icons : http://www.onlinewebfonts.com/icon -->
<!DOCTYPE svg PUBLIC "-//W3C//DTD SVG 1.1//EN" "http://www.w3.org/Graphics/SVG/1.1/DTD/svg11.dtd">
<svg version="1.1" xmlns="http://www.w3.org/2000/svg" xmlns:xlink="http://www.w3.org/1999/xlink" x="0px" y="0px" viewBox="0 0 1000 1000" enable-background="new 0 0 1000 1000" xml:space="preserve">
<metadata> Svg Vector Icons : http://www.onlinewebfonts.com/icon </metadata>
<g><path d="M132.5,173.3h735c45.1,0,81.7-36.6,81.7-81.7S912.6,10,867.5,10l-735,0c-45.1,0-81.7,36.6-81.7,81.7S87.4,173.3,132.5,173.3z"/><path d="M867.5,418.3h-735c-45.1,0-81.7,36.6-81.7,81.7s36.6,81.7,81.7,81.7h735c45.1,0,81.7-36.6,81.7-81.7S912.6,418.3,867.5,418.3z"/><path d="M867.5,826.7h-735c-45.1,0-81.7,36.6-81.7,81.7S87.4,990,132.5,990h735c45.1,0,81.7-36.6,81.7-81.7S912.6,826.7,867.5,826.7z"/></g>
</svg>