<?xml version="1.0" encoding="utf-8"?>
<!-- Svg Vector Icons : http://www.onlinewebfonts.com/icon -->
<!DOCTYPE svg PUBLIC "-//W3C//DTD SVG 1.1//EN" "http://www.w3.org/Graphics/SVG/1.1/DTD/svg11.dtd">
<svg version="1.1" xmlns="http://www.w3.org/2000/svg" xmlns:xlink="http://www.w3.org/1999/xlink" x="0px" y="0px" viewBox="0 0 1000 1000" enable-background="new 0 0 1000 1000" xml:space="preserve">
<metadata> Svg Vector Icons : http://www.onlinewebfonts.com/icon </metadata>
<g><path d="M512.9,571c192.2,0,363.1,182.8,370.2,411.2c30.2-10.5,58.5-22.8,85.9-36.8c-38.1-209.1-170.5-375.6-341.1-432.1C711.3,467.9,768,379.5,768,277.8C768,129.9,648.1,10,500.2,10S232.5,129.9,232.5,277.8c0,101.7,56.7,190.1,140.2,235.5C201.2,570,68.5,737.7,31,948c31.6,17.2,63.3,31,96.7,42C131.4,757.9,318.5,571,512.9,571z M320.1,281c0-99.2,80.4-179.6,179.6-179.6S679.4,181.8,679.4,281s-80.4,179.6-179.6,179.6S320.1,380.2,320.1,281z"/></g>
</svg>