<?xml version="1.0" encoding="UTF-8" standalone="no"?>
<!-- Generator: Adobe Illustrator 23.0.1, SVG Export Plug-In . SVG Version: 6.00 Build 0)  -->

<svg
   xmlns:dc="http://purl.org/dc/elements/1.1/"
   xmlns:cc="http://creativecommons.org/ns#"
   xmlns:rdf="http://www.w3.org/1999/02/22-rdf-syntax-ns#"
   xmlns:svg="http://www.w3.org/2000/svg"
   xmlns="http://www.w3.org/2000/svg"
   xmlns:sodipodi="http://sodipodi.sourceforge.net/DTD/sodipodi-0.dtd"
   xmlns:inkscape="http://www.inkscape.org/namespaces/inkscape"
   version="1.1"
   id="Layer_1"
   x="0px"
   y="0px"
   viewBox="0 0 4096 4096"
   xml:space="preserve"
   sodipodi:docname="amazon-prime-logo.svg"
   inkscape:version="0.92.2 (5c3e80d, 2017-08-06)"
   width="4096"
   height="4096"
   inkscape:export-filename="G:\Users\suitedoalex\sites\svg\amazon-prime-logo-0.png"
   inkscape:export-xdpi="96"
   inkscape:export-ydpi="96"><metadata
     id="metadata47"><rdf:RDF><cc:Work
         rdf:about=""><dc:format>image/svg+xml</dc:format><dc:type
           rdf:resource="http://purl.org/dc/dcmitype/StillImage" /><dc:title></dc:title></cc:Work></rdf:RDF></metadata><defs
     id="defs45" /><sodipodi:namedview
     pagecolor="#ffffff"
     bordercolor="#666666"
     borderopacity="1"
     objecttolerance="10"
     gridtolerance="10"
     guidetolerance="10"
     inkscape:pageopacity="0"
     inkscape:pageshadow="2"
     inkscape:window-width="1920"
     inkscape:window-height="1017"
     id="namedview43"
     showgrid="false"
     inkscape:zoom="0.074553572"
     inkscape:cx="-276.2993"
     inkscape:cy="831.10335"
     inkscape:window-x="-8"
     inkscape:window-y="-8"
     inkscape:window-maximized="1"
     inkscape:current-layer="g40" /><style
     type="text/css"
     id="style2">
	.st0{fill:#00A8E1;}
	.st1{fill-rule:evenodd;clip-rule:evenodd;fill:#00A8E1;}
	.st2{fill-rule:evenodd;clip-rule:evenodd;fill:#FFFFFF;}
</style><g
     id="g40"
     transform="translate(0,4016)"><g
       id="g24"
       transform="matrix(11.471251,0,0,11.471251,441.4513,-2429.1443)"
       inkscape:export-xdpi="12.037033"
       inkscape:export-ydpi="12.037033"><g
         id="g16"><g
           id="g14"><path
             class="st0"
             d="m 156,58.9 c -0.4,0 -0.7,-0.1 -0.9,-0.3 -0.2,-0.2 -0.3,-0.5 -0.3,-0.9 v -32 c 0,-0.4 0.1,-0.8 0.3,-0.9 0.2,-0.2 0.5,-0.3 0.9,-0.3 h 3.4 c 0.7,0 1.2,0.4 1.3,1.1 l 0.3,1.2 c 1,-0.9 2.1,-1.7 3.5,-2.2 1.4,-0.5 2.7,-0.8 4.1,-0.8 3.1,0 5.5,1.1 7.4,3.4 1.8,2.3 2.7,5.3 2.7,9.2 0,2.7 -0.4,5 -1.3,6.9 -0.9,2 -2.1,3.5 -3.6,4.6 -1.5,1.1 -3.3,1.6 -5.3,1.6 -1.3,0 -2.6,-0.2 -3.7,-0.6 -1.2,-0.4 -2.2,-1 -3,-1.7 v 10.5 c 0,0.4 -0.1,0.8 -0.3,0.9 -0.2,0.2 -0.5,0.3 -0.9,0.3 z m 10.5,-14.6 c 1.8,0 3.1,-0.6 4,-1.8 0.8,-1.2 1.3,-3.1 1.3,-5.7 0,-2.7 -0.4,-4.6 -1.2,-5.8 -0.8,-1.2 -2.2,-1.8 -4,-1.8 -1.7,0 -3.2,0.4 -4.7,1.3 V 43 c 1.3,0.8 2.9,1.3 4.6,1.3 z"
             id="path4"
             inkscape:connector-curvature="0"
             style="fill:#00a8e1" /><path
             class="st0"
             d="m 184.7,49 c -0.4,0 -0.7,-0.1 -0.9,-0.3 -0.2,-0.2 -0.3,-0.5 -0.3,-0.9 V 25.7 c 0,-0.4 0.1,-0.8 0.3,-0.9 0.2,-0.2 0.5,-0.3 0.9,-0.3 h 3.4 c 0.7,0 1.2,0.4 1.3,1.1 l 0.6,2.6 c 1.3,-1.4 2.5,-2.4 3.6,-3 1.1,-0.6 2.3,-0.9 3.6,-0.9 h 0.7 c 0.4,0 0.8,0.1 1,0.3 0.2,0.2 0.3,0.5 0.3,0.9 v 4 c 0,0.4 -0.1,0.7 -0.3,0.9 -0.2,0.2 -0.5,0.3 -0.9,0.3 -0.2,0 -0.5,0 -0.9,0 -0.4,0 -0.8,0 -1.3,0 -0.7,0 -1.6,0.1 -2.7,0.3 -1.1,0.2 -1.9,0.5 -2.7,0.8 v 16.1 c 0,0.4 -0.1,0.7 -0.3,0.9 -0.2,0.2 -0.5,0.3 -0.9,0.3 h -4.5 z"
             id="path6"
             inkscape:connector-curvature="0"
             style="fill:#00a8e1" /><path
             class="st0"
             d="m 206.1,20.7 c -1.2,0 -2.2,-0.3 -2.9,-1 -0.7,-0.7 -1.1,-1.6 -1.1,-2.7 0,-1.2 0.4,-2.1 1.1,-2.7 0.7,-0.7 1.7,-1 2.9,-1 1.2,0 2.2,0.3 2.9,1 0.7,0.7 1.1,1.6 1.1,2.7 0,1.1 -0.4,2.1 -1.1,2.7 -0.7,0.7 -1.6,1 -2.9,1 z M 203.8,49 c -0.4,0 -0.7,-0.1 -0.9,-0.3 -0.2,-0.2 -0.3,-0.5 -0.3,-0.9 V 25.7 c 0,-0.4 0.1,-0.8 0.3,-0.9 0.2,-0.2 0.5,-0.3 0.9,-0.3 h 4.6 c 0.4,0 0.8,0.1 0.9,0.3 0.2,0.2 0.3,0.5 0.3,0.9 v 22.1 c 0,0.4 -0.1,0.7 -0.3,0.9 -0.2,0.2 -0.5,0.3 -0.9,0.3 z"
             id="path8"
             inkscape:connector-curvature="0"
             style="fill:#00a8e1" /><path
             class="st0"
             d="m 216.8,49 c -0.4,0 -0.7,-0.1 -0.9,-0.3 -0.2,-0.2 -0.3,-0.5 -0.3,-0.9 V 25.7 c 0,-0.4 0.1,-0.8 0.3,-0.9 0.2,-0.2 0.5,-0.3 0.9,-0.3 h 3.4 c 0.7,0 1.2,0.4 1.3,1.1 l 0.4,1.3 c 1.7,-1.1 3.2,-1.9 4.6,-2.4 1.4,-0.5 2.8,-0.7 4.2,-0.7 2.9,0 4.9,1 6.1,3.1 1.6,-1.1 3.2,-1.9 4.6,-2.3 1.4,-0.5 2.9,-0.7 4.5,-0.7 2.2,0 4,0.6 5.2,1.9 1.2,1.2 1.8,3 1.8,5.2 v 16.9 c 0,0.4 -0.1,0.7 -0.3,0.9 -0.2,0.2 -0.5,0.3 -0.9,0.3 h -4.6 c -0.4,0 -0.7,-0.1 -0.9,-0.3 -0.2,-0.2 -0.3,-0.5 -0.3,-0.9 V 32.4 c 0,-2.2 -1,-3.3 -2.9,-3.3 -1.7,0 -3.5,0.4 -5.2,1.2 v 17.4 c 0,0.4 -0.1,0.7 -0.3,0.9 -0.2,0.2 -0.5,0.3 -0.9,0.3 H 232 c -0.4,0 -0.7,-0.1 -0.9,-0.3 -0.2,-0.2 -0.3,-0.5 -0.3,-0.9 V 32.4 c 0,-2.2 -1,-3.3 -2.9,-3.3 -1.8,0 -3.5,0.4 -5.3,1.3 v 17.3 c 0,0.4 -0.1,0.7 -0.3,0.9 -0.2,0.2 -0.5,0.3 -0.9,0.3 h -4.6 z"
             id="path10"
             inkscape:connector-curvature="0"
             style="fill:#00a8e1" /><path
             class="st0"
             d="m 269.5,49.7 c -4,0 -7,-1.1 -9.1,-3.3 -2.1,-2.2 -3.2,-5.3 -3.2,-9.3 0,-4.2 1.1,-7.4 3.3,-9.8 2.2,-2.4 5.2,-3.5 9.1,-3.5 3,0 5.3,0.7 7,2.2 1.7,1.4 2.5,3.4 2.5,5.7 0,2.4 -0.9,4.2 -2.7,5.4 -1.8,1.2 -4.5,1.8 -8,1.8 -1.8,0 -3.4,-0.2 -4.7,-0.5 0.2,2.1 0.8,3.7 1.9,4.6 1.1,0.9 2.8,1.4 5,1.4 0.9,0 1.8,-0.1 2.6,-0.2 0.8,-0.1 2,-0.4 3.5,-0.7 0.1,0 0.2,-0.1 0.3,-0.1 0.1,0 0.2,0 0.2,0 0.5,0 0.8,0.4 0.8,1.1 v 2.2 c 0,0.5 -0.1,0.9 -0.2,1.1 -0.1,0.2 -0.4,0.4 -0.8,0.6 -2.4,0.9 -4.9,1.3 -7.5,1.3 z m -1.6,-15 c 1.6,0 2.8,-0.2 3.5,-0.7 0.7,-0.5 1.1,-1.3 1.1,-2.3 0,-2 -1.2,-3 -3.6,-3 -3.1,0 -4.8,1.9 -5.3,5.7 1.3,0.1 2.8,0.3 4.3,0.3 z"
             id="path12"
             inkscape:connector-curvature="0"
             style="fill:#00a8e1" /></g></g><g
         id="g22"><path
           class="st1"
           d="m 89.7,57.7 c -8.3,6.1 -20.3,9.4 -30.7,9.4 -14.5,0 -27.6,-5.4 -37.5,-14.3 -0.8,-0.7 -0.1,-1.7 0.9,-1.1 10.7,6.2 23.9,10 37.5,10 9.2,0 19.3,-1.9 28.6,-5.9 1.4,-0.6 2.5,0.9 1.2,1.9 z"
           id="path18"
           inkscape:connector-curvature="0"
           style="clip-rule:evenodd;fill:#00a8e1;fill-rule:evenodd" /><path
           class="st1"
           d="M 93.1,53.8 C 92,52.4 86.1,53.2 83.4,53.5 82.6,53.6 82.5,52.9 83.2,52.4 88,49 95.8,50 96.7,51.1 97.6,52.2 96.5,60 92,63.8 c -0.7,0.6 -1.3,0.3 -1,-0.5 0.9,-2.5 3.2,-8.1 2.1,-9.5 z"
           id="path20"
           inkscape:connector-curvature="0"
           style="clip-rule:evenodd;fill:#00a8e1;fill-rule:evenodd" /></g></g><g
       id="g38"
       style="fill:#1a1a1a"
       transform="matrix(11.471251,0,0,11.471251,441.4513,-2429.1443)"
       inkscape:export-xdpi="12.037033"
       inkscape:export-ydpi="12.037033"><path
         class="st2"
         d="m 83.6,28.8 v -3.2 c 0,-0.5 0.4,-0.8 0.8,-0.8 h 14.5 c 0.5,0 0.8,0.3 0.8,0.8 v 2.8 c 0,0.5 -0.4,1.1 -1.1,2 l -7.5,10.8 c 2.8,-0.1 5.8,0.4 8.3,1.8 0.6,0.3 0.7,0.8 0.8,1.3 v 3.5 c 0,0.5 -0.5,1 -1.1,0.7 -4.5,-2.3 -10.4,-2.6 -15.4,0 -0.5,0.3 -1,-0.3 -1,-0.8 v -3.3 c 0,-0.5 0,-1.4 0.5,-2.2 L 91.9,29.7 H 84.3 C 84,29.6 83.6,29.2 83.6,28.8 Z"
         id="path26"
         style="clip-rule:evenodd;fill:#1a1a1a;fill-rule:evenodd"
         inkscape:connector-curvature="0" /><path
         class="st2"
         d="m 112.4,28.9 c -3.3,0 -3.5,4.4 -3.5,7.2 0,2.8 0,8.7 3.4,8.7 3.4,0 3.6,-4.8 3.6,-7.7 0,-1.9 -0.1,-4.2 -0.7,-6 -0.4,-1.6 -1.4,-2.2 -2.8,-2.2 z m -0.1,-4.6 c 6.6,0 10.1,5.6 10.1,12.8 0,6.9 -3.9,12.4 -10.1,12.4 -6.4,0 -10,-5.6 -10,-12.7 0.1,-7 3.6,-12.5 10,-12.5 z"
         id="path28"
         style="clip-rule:evenodd;fill:#1a1a1a;fill-rule:evenodd"
         inkscape:connector-curvature="0" /><path
         class="st2"
         d="m 76.5,49 c -0.3,0.3 -0.8,0.3 -1,0.1 C 74,47.9 73,46.2 73,46.2 c -2.4,2.5 -4.1,3.2 -7.3,3.2 -3.7,0 -6.6,-2.3 -6.6,-6.9 0,-3.6 1.9,-6 4.7,-7.2 2.4,-1.1 5.8,-1.2 8.3,-1.5 0,0 0.2,-2.8 -0.5,-3.8 -0.6,-0.8 -1.6,-1.1 -2.5,-1.1 -1.6,0 -3.2,0.9 -3.5,2.6 -0.1,0.5 -0.5,0.9 -0.8,0.9 l -4.2,-0.5 c -0.3,0 -0.8,-0.4 -0.7,-0.9 1,-5.2 5.7,-6.8 9.9,-6.8 2.2,0 5,0.6 6.7,2.2 2.2,2 1.9,4.7 1.9,7.6 v 6.9 c 0,2.1 0.9,3 1.7,4.1 0.3,0.4 0.3,0.9 0,1.2 C 79,46.8 76.5,49 76.5,49 Z M 72,38.2 c 0,1.7 0,3.2 -0.8,4.7 -0.7,1.2 -1.8,2 -3.1,2 -1.7,0 -2.7,-1.3 -2.7,-3.2 0,-3.8 3.4,-4.5 6.6,-4.5 z"
         id="path30"
         style="clip-rule:evenodd;fill:#1a1a1a;fill-rule:evenodd"
         inkscape:connector-curvature="0" /><path
         class="st2"
         d="m 18.5,49 c -0.3,0.3 -0.8,0.3 -1,0.1 C 16,47.9 15,46.2 15,46.2 12.6,48.7 10.9,49.4 7.7,49.4 3.9,49.3 1,47 1,42.4 c 0,-3.6 1.9,-6 4.7,-7.2 2.4,-1.1 5.8,-1.2 8.3,-1.5 0,0 0.2,-2.8 -0.5,-3.8 C 12.9,29.1 11.9,28.8 11,28.8 9.4,28.8 7.8,29.7 7.5,31.4 7.4,31.9 7,32.3 6.7,32.3 L 2.5,31.8 c -0.3,0 -0.8,-0.4 -0.7,-0.9 1,-5.2 5.7,-6.8 9.9,-6.8 2.2,0 5,0.6 6.7,2.2 2.2,2 1.9,4.7 1.9,7.6 v 6.9 c 0,2.1 0.9,3 1.7,4.1 0.3,0.4 0.3,0.9 0,1.2 -1,0.7 -3.5,2.9 -3.5,2.9 z M 14,38.2 c 0,1.7 0,3.2 -0.8,4.7 -0.7,1.2 -1.8,2 -3.1,2 -1.7,0 -2.7,-1.3 -2.7,-3.2 0,-3.8 3.4,-4.5 6.6,-4.5 z"
         id="path32"
         style="clip-rule:evenodd;fill:#1a1a1a;fill-rule:evenodd"
         inkscape:connector-curvature="0" /><path
         class="st2"
         d="m 31.4,36.2 c 0,-2.6 -0.1,-6.3 3.1,-6.3 3.1,0 2.7,3.7 2.7,6.3 v 12 c 0,0.4 0.3,0.8 0.8,0.8 h 4.4 c 0.5,0 0.9,-0.4 0.9,-0.8 v -12 c 0,-1.3 0,-3.2 0.4,-4.3 0.5,-1.1 1.6,-1.9 2.6,-1.9 1.3,0 2.3,0.4 2.6,2 0.2,0.9 0.1,3.3 0.1,4.3 v 12 c 0,0.4 0.3,0.8 0.8,0.8 h 4.4 c 0.5,0 0.9,-0.4 0.9,-0.8 V 34 c 0,-2.4 0.3,-5.2 -1.1,-7.1 -1.2,-1.7 -3.3,-2.5 -5.1,-2.5 -2.6,0 -5,1.3 -6.1,4.2 -1.2,-2.9 -3,-4.2 -5.7,-4.2 -2.7,0 -4.7,1.3 -5.8,4.2 h -0.1 v -2.9 c 0,-0.5 -0.4,-0.8 -0.8,-0.8 h -4.1 c -0.5,0 -0.8,0.4 -0.8,0.8 v 22.6 c 0,0.5 0.4,0.8 0.8,0.8 h 4.4 c 0.5,0 0.8,-0.4 0.8,-0.8 z"
         id="path34"
         style="clip-rule:evenodd;fill:#1a1a1a;fill-rule:evenodd"
         inkscape:connector-curvature="0" /><path
         class="st2"
         d="m 131.8,48.2 c 0,0.5 -0.4,0.8 -0.8,0.8 h -4.4 c -0.5,0 -0.8,-0.4 -0.8,-0.8 V 25.6 c 0,-0.5 0.4,-0.8 0.8,-0.8 h 4.1 c 0.5,0 0.8,0.4 0.8,0.6 v 3.5 h 0.1 c 1.2,-3.1 3,-4.6 6,-4.6 2,0 3.9,0.7 5.2,2.7 1.2,1.8 1.2,4.9 1.2,7.1 v 14.3 c 0,0.4 -0.4,0.7 -0.8,0.7 h -4.4 c -0.4,0 -0.7,-0.3 -0.8,-0.7 V 34.7 c 0,-4.6 -1.8,-4.7 -2.8,-4.7 -1.2,0 -2.1,0.9 -2.5,1.8 -0.6,1.4 -0.7,2.8 -0.7,4.3 z"
         id="path36"
         style="clip-rule:evenodd;fill:#1a1a1a;fill-rule:evenodd"
         inkscape:connector-curvature="0" /></g></g></svg>