<svg id="flat" height="512" viewBox="0 0 512 512" width="512" xmlns="http://www.w3.org/2000/svg"><path d="m383.41113 128h-179.41137a179.99974 179.99974 0 0 0 -179.99976 179.99976v.00048a179.99974 179.99974 0 0 0 179.99976 179.99976h100.00024a104.00007 104.00007 0 0 0 104-104v-64l32.55176-21.70093a88.58911 88.58911 0 0 0 39.44824-73.71032v-.00013a96.58864 96.58864 0 0 0 -96.58887-96.58862zm-47.41113 200h-30.38753a53.28992 53.28992 0 0 0 -41.61247 20 53.28992 53.28992 0 0 1 -41.61245 20h-10.38755a52.00007 52.00007 0 0 1 -52-52 52 52 0 0 1 52-52h124a32 32 0 0 1 32 32 32 32 0 0 1 -32 32z" fill="#548aff"/><circle cx="88" cy="312" fill="#ffa100" r="32"/><circle cx="128" cy="232" fill="#c5dafa" r="32"/><circle cx="216" cy="200" fill="#8be0e8" r="32"/><circle cx="312" cy="200" fill="#7dafff" r="32"/><circle cx="128" cy="392" fill="#08d175" r="32"/><circle cx="216" cy="424" fill="#f5714f" r="32"/><circle cx="320" cy="408" fill="#ffc431" r="48"/><circle cx="408" cy="200" fill="#ffb0a1" r="32"/><path d="m488 35.48a11.48818 11.48818 0 0 1 -3.08008 7.83l-178.20992 191.4-34.71 37.29-32-40 33.75-30.25 194.98-174.82a11.46454 11.46454 0 0 1 7.66014-2.93h.12986a11.47151 11.47151 0 0 1 11.48 11.48z" fill="#c78640"/><path d="m306.71 234.71-34.71 37.29-32-40 33.75-30.25z" fill="#ffc431"/><path d="m240 232-30.19939 25.16616a64 64 0 0 1 -40.97181 14.83384h-48.8288l20.35676 28.49946a65.67107 65.67107 0 0 0 53.43875 27.50054h.00007a65.67107 65.67107 0 0 0 49.8612-22.93291l28.34322-33.06709z" fill="#ffe28f"/></svg>