<svg id="Capa_1" enable-background="new 0 0 512.003 512.003" height="512" viewBox="0 0 512.003 512.003" width="512" xmlns="http://www.w3.org/2000/svg"><path d="m105 511.956c-21.763 0-42.001-6.655-58.785-18.037-3.486-2.364-2.531-20.41-2.531-20.41s-15.958 4.703-19.677.198c-14.991-18.157-24.007-41.421-24.007-66.751 0-27.916 10.951-53.323 28.782-72.15 3.872-4.088 16.689.959 16.689.959s3.08-17.422 6.933-19.662c15.475-8.993 33.445-14.147 52.596-14.147 19.454 0 37.69 5.318 53.329 14.577 4.022 2.381 5.908 15.104 5.908 15.104s13.895-.151 17.595 3.823c17.468 18.759 28.168 43.902 28.168 71.496 0 25.011-8.79 48.008-23.443 66.063-2.906 3.58-15.596.746-15.596.746s-2.003 16.592-6.51 19.699c-16.914 11.659-37.4 18.492-59.451 18.492z" fill="#f6efea"/><path d="m181.832 335.46c-3.7-3.974-17.595-3.823-17.595-3.823s-1.885-12.723-5.908-15.104c-15.639-9.259-33.875-14.577-53.329-14.577v210c22.051 0 42.537-6.833 59.451-18.492 4.507-3.107 6.51-19.699 6.51-19.699s12.691 2.834 15.596-.746c14.653-18.055 23.443-41.052 23.443-66.063 0-27.594-10.7-52.737-28.168-71.496z" fill="#eee1dc"/><path d="m28.785 334.809c11.624 18.216 18.021 41.546 18.021 66.001 0 27.585-8.439 54.245-22.825 72.866 6.4 7.758 13.891 14.584 22.235 20.242 19.512-24.124 30.59-57.606 30.59-93.108 0-31.141-8.611-61.149-24.247-84.498-.048-.072-.104-.135-.153-.205-8.75 5.085-16.703 11.398-23.621 18.702z" fill="#ff193d"/><path d="m186.552 473.015c-14.081-18.588-22.327-44.943-22.327-72.206 0-24.16 6.242-47.226 17.602-65.344-6.868-7.375-14.78-13.762-23.501-18.925-15.541 23.316-24.101 53.228-24.101 84.27 0 35.278 10.94 68.559 30.222 92.649 8.31-5.73 15.757-12.623 22.105-20.444z" fill="#ea0016"/><path d="m286.534 339.56 53.073-53.073s-87.375-99.88-155.542-177.801c-2.83-3.235-16.041-3.475-16.041-3.475s-.047-14.915-3.756-19.155c-6.936-7.928-13.512-15.446-19.589-22.392-2.958-3.381-18.91-2.751-18.91-2.751s2.698-15.781-.663-19.622c-12.645-14.453-20.371-23.284-20.38-23.293-23.936-23.936-62.745-23.936-86.681 0s-23.936 62.745 0 86.681c.009.009 8.84 7.735 23.293 20.38 3.263 2.855 16.928 2.969 16.928 2.969s1.475 13.131 5.704 16.83c6.874 6.014 14.303 12.513 22.133 19.363 4.079 3.569 17.863 5.652 17.863 5.652s1.359 11.164 4.767 14.145c77.922 68.167 177.801 155.542 177.801 155.542z" fill="#f6efea"/><path d="m313.068 313.027 26.539-26.539s-87.375-99.88-155.542-177.801c-2.83-3.235-16.041-3.475-16.041-3.475s-.047-14.916-3.756-19.155c-6.936-7.928-13.512-15.446-19.589-22.392-2.958-3.381-18.91-2.751-18.91-2.751s2.698-15.781-.663-19.622c-12.645-14.453-20.371-23.284-20.38-23.293-23.936-23.936-62.745-23.936-86.681 0z" fill="#eee1dc"/><path d="m63.964 144.866 80.723-81.207-19.572-22.374-83.784 83.783z" fill="#76e2f8"/><path d="m108.728 184.024 75.343-75.343-19.796-22.63-78.177 78.177z" fill="#76e2f8"/><path d="m271.458 326.372 179.221 156.774 32.514-32.514-156.774-179.221z" fill="#00607f"/><path d="m507.61 448.367-59.196 59.196c-5.858 5.858-15.355 5.858-21.213 0s-5.858-15.355 0-21.213l59.196-59.196c5.858-5.858 15.355-5.858 21.213 0 5.857 5.857 5.857 15.355 0 21.213z" fill="#007a9f"/><path d="m104.316 104.271 40.371-40.612-19.572-22.374-41.893 41.892z" fill="#4bb9ec"/><path d="m146.398 146.354 37.673-37.673-19.796-22.63-39.09 39.09z" fill="#4bb9ec"/><path d="m466.932 466.893 16.261-16.261-156.774-179.221-27.483 27.483z" fill="#002c3c"/><path d="m478.008 477.969 29.602-29.602c5.858-5.858 5.858-15.355 0-21.213s-15.355-5.858-21.213 0l-29.602 29.602z" fill="#00607f"/></svg>