<svg id="Capa_1" enable-background="new 0 0 512 512" height="512" viewBox="0 0 512 512" width="512" xmlns="http://www.w3.org/2000/svg"><g><path clip-rule="evenodd" d="m322.743 95.133v-62.222c0-18.086-14.797-32.911-32.911-32.911h-16.045c-18.113 0-32.91 14.825-32.91 32.911v62.222z" fill="#90d8f9" fill-rule="evenodd"/><path clip-rule="evenodd" d="m322.743 95.133v-62.222c0-18.086-14.797-32.911-32.911-32.911h-16.045c-2.381 0-4.733.254-6.973.766 14.768 3.203 25.938 16.441 25.938 32.146v62.222h29.991z" fill="#75cef9" fill-rule="evenodd"/><path clip-rule="evenodd" d="m322.743 95.133c29.253 9.099 49.267 27.637 49.267 49.01v367.857h-180.4v-367.857c0-21.373 20.041-39.911 49.267-49.01z" fill="#f4fbff" fill-rule="evenodd"/><path clip-rule="evenodd" d="m322.743 95.133c29.253 9.099 49.267 27.637 49.267 49.01v367.857h-29.991v-367.857c0-21.373-20.041-39.911-49.267-49.01z" fill="#e4f6ff" fill-rule="evenodd"/><path clip-rule="evenodd" d="m228.602 150.409v321.594h106.414v-321.594c0-10.829-23.811-19.617-53.206-19.617-29.396 0-53.208 8.788-53.208 19.617z" fill="#90d8f9" fill-rule="evenodd"/><path d="m256.354 233.861c-4.139 0-7.483-3.345-7.483-7.483 0-4.11 3.345-7.456 7.483-7.456l56.467-.028c.198 0 .426-.028.652-.028 4.139 0 7.512 3.375 7.512 7.513h-.028c0 4.139-3.345 7.483-7.483 7.483h-57.12zm0 62.08c-4.139 0-7.483-3.346-7.483-7.456 0-4.139 3.345-7.483 7.483-7.483h56.467c.198 0 .426-.028.652-.028 4.139 0 7.512 3.373 7.512 7.512h-.028c0 4.11-3.345 7.456-7.483 7.456h-57.12zm0-31.041c-4.139 0-7.483-3.344-7.483-7.482 0-4.111 3.345-7.455 7.483-7.455h56.467c.198-.029.426-.029.652-.029 4.139 0 7.512 3.346 7.512 7.484h-.028c0 4.139-3.345 7.482-7.483 7.482z" fill="#f4fbff"/><g clip-rule="evenodd" fill-rule="evenodd"><path d="m404.211 304.728v-57.176c0-3.685 1.984-5.98 6.01-5.98h36.397c12.076 0 21.94-9.894 21.94-21.941 0-12.075-9.864-21.969-21.94-21.969-37.05 0-74.126 0-111.205 0-12.075 0-21.939 9.894-21.939 21.941v85.125z" fill="#d3effb"/><path d="m404.211 299.712v-52.159c0-3.685 1.984-5.98 6.01-5.98h-30.019c-3.997 0-5.981 2.296-5.981 5.98v52.159zm12.416-58.14h29.991c12.076 0 21.94-9.894 21.94-21.941 0-12.075-9.864-21.969-21.94-21.969h-29.991c12.076 0 21.941 9.894 21.941 21.969 0 12.048-9.865 21.941-21.941 21.941z" fill="#b1e4f9"/><path d="m404.211 299.712c49.636 18.425 84.984 66.188 84.984 122.23 0 32.543-11.935 62.307-31.663 85.154-2.863 3.345-5.981 4.903-10.46 4.903h-182.469c-22.366-23.386-36.114-55.105-36.114-90.058 0-56.042 35.377-103.806 84.984-122.23h90.738z" fill="#ffe07d"/><path d="m404.211 299.712c49.636 18.425 84.984 66.188 84.984 122.23 0 32.543-11.935 62.307-31.663 85.154-2.863 3.345-5.981 4.903-10.46 4.903h-29.991c4.45 0 7.597-1.559 10.46-4.903 19.73-22.848 31.663-52.611 31.663-85.154 0-56.042-35.377-103.806-84.983-122.23z" fill="#ffc269"/><path d="m473.803 360.43c9.808 18.341 15.393 39.261 15.393 61.513 0 10.091-1.134 19.929-3.317 29.34h-254.073c-2.154-9.411-3.316-19.249-3.316-29.34 0-22.252 5.584-43.172 15.421-61.513z" fill="#ffa95f"/><path d="m473.803 360.43c9.808 18.341 15.393 39.261 15.393 61.513 0 10.091-1.134 19.929-3.317 29.34h-29.99c2.154-9.411 3.316-19.249 3.316-29.34 0-22.252-5.584-43.172-15.42-61.513z" fill="#e49542"/><path d="m144.554 512h159.31c18.113 0 32.938-14.797 32.938-32.91v-29.594c0-18.114-14.825-32.939-32.938-32.939h-159.31c-18.114 0-32.911 14.825-32.911 32.939v29.594c.001 18.113 14.797 32.91 32.911 32.91z" fill="#fcbdbd"/><path d="m273.873 512h29.991c18.113 0 32.938-14.797 32.938-32.91v-29.594c0-18.114-14.825-32.939-32.938-32.939h-29.991c18.113 0 32.911 14.825 32.911 32.939v29.594c0 18.113-14.798 32.91-32.911 32.91z" fill="#f5a1a1"/><path d="m303.864 416.557h-159.31v29.821c0 18.113 14.825 32.91 32.911 32.91h93.488c18.113 0 32.911-14.797 32.911-32.91z" fill="#e28086"/><path d="m303.864 416.557h-29.991v29.821c0 18.113-14.826 32.91-32.911 32.91h29.991c18.113 0 32.911-14.797 32.911-32.91z" fill="#dd636e"/><path d="m89.987 88.499h54.482c3.316 0 6.01 2.722 6.01 6.009v130.51c0 3.316-2.693 6.01-6.01 6.01h-54.482c-3.289 0-6.01-2.693-6.01-6.01v-130.51c0-3.287 2.721-6.009 6.01-6.009z" fill="#f4fbff"/><path d="m114.479 88.499h29.991c3.316 0 6.01 2.722 6.01 6.009v130.51c0 3.316-2.693 6.01-6.01 6.01h-29.991c3.288 0 6.009-2.693 6.009-6.01v-130.51c0-3.287-2.721-6.009-6.009-6.009z" fill="#e4f6ff"/></g><path d="m94.126 129.289c-4.139 0-7.484-3.344-7.484-7.482 0-4.139 3.345-7.512 7.484-7.512h25.994c4.139 0 7.512 3.373 7.512 7.512s-3.373 7.482-7.512 7.482zm0 75.942c-4.139 0-7.484-3.346-7.484-7.484 0-4.166 3.345-7.512 7.484-7.512h25.994c4.139 0 7.512 3.346 7.512 7.512 0 4.139-3.373 7.484-7.512 7.484zm0-37.957c-4.139 0-7.484-3.373-7.484-7.512s3.345-7.483 7.484-7.483h25.994c4.139 0 7.512 3.345 7.512 7.483s-3.373 7.512-7.512 7.512z" fill="#407093"/><path clip-rule="evenodd" d="m78.761 251.465c8.873-2.58 15.364-10.8 15.364-20.438v-142.528c0-11.707-9.582-21.289-21.289-21.289h-28.714c-11.735 0-21.317 9.582-21.317 21.289v417.52c0 3.289 2.693 5.981 6.01 5.981h38.013c3.316 0 6.009-2.692 6.009-5.981 0-82.573 0-165.148 0-247.722 0-3.346-.85-4.848 5.924-6.832z" fill="#407093" fill-rule="evenodd"/><path clip-rule="evenodd" d="m78.761 251.465c8.873-2.58 15.364-10.8 15.364-20.438v-142.528c0-11.707-9.582-21.289-21.289-21.289h-28.714c-.227 0-.425 0-.652 0 11.424.34 20.665 9.809 20.665 21.289v142.528c0 9.638-6.52 17.857-15.364 20.438-6.775 1.984-5.925 3.486-5.925 6.832v247.722c0 3.289-2.721 5.981-6.009 5.981h29.991c3.316 0 6.009-2.692 6.009-5.981 0-82.573 0-165.148 0-247.722 0-3.346-.85-4.848 5.924-6.832z" fill="#365e7d" fill-rule="evenodd"/><path d="m186.876 453.861c-4.139 0-7.483-3.345-7.483-7.483 0-4.139 3.345-7.513 7.483-7.513h74.666c4.138 0 7.512 3.374 7.512 7.513s-3.374 7.483-7.512 7.483z" fill="#f5a1a1"/><path d="m274.326 160.811c0-4.139 3.346-7.512 7.484-7.512 4.139 0 7.512 3.373 7.512 7.512v11.481h11.48c4.139 0 7.512 3.346 7.512 7.512 0 4.139-3.373 7.484-7.512 7.484h-11.48v11.479c0 4.167-3.373 7.512-7.512 7.512s-7.484-3.345-7.484-7.512v-11.479h-11.509c-4.139 0-7.483-3.346-7.483-7.484 0-4.166 3.345-7.512 7.483-7.512h11.509z" fill="#f4fbff"/><path clip-rule="evenodd" d="m389.103 389.74c10.148 0 18.822 6.236 22.422 15.109 3.572-8.873 12.246-15.109 22.394-15.109 13.353 0 24.181 10.801 24.181 24.152 0 12.415-11.565 27.439-21.147 37.39h-50.854c-9.581-9.95-21.146-24.975-21.146-37.39-.002-13.351 10.799-24.152 24.15-24.152z" fill="#dd636e" fill-rule="evenodd"/></g></svg>