<svg id="Flat" height="512" viewBox="0 0 512 512" width="512" xmlns="http://www.w3.org/2000/svg"><g><g><g><path d="m98 112h44a10 10 0 0 1 10 10v62a0 0 0 0 1 0 0h-64a0 0 0 0 1 0 0v-62a10 10 0 0 1 10-10z" fill="#fed672"/><path d="m192 288h-144v-82a30 30 0 0 1 30-30h84a30 30 0 0 1 30 30z" fill="#fa5d3f"/><path d="m160 280h-80v-54a10 10 0 0 1 10-10h60a10 10 0 0 1 10 10z" fill="#fffdfa"/></g><g><g><path d="m280 144-56 80v64h128v-64l-24-80v-8h-48z" fill="#8d5aed"/><path d="m232 88-32 72 24 8 56-64z" fill="#fed672"/><path d="m224 88-24-8v-24h40z" fill="#fa5d3f"/><path d="m216 96 16-40h64l32 56v8h-48v-8z" fill="#c85aed"/><path d="m280 112h48v32h-48z" fill="#fed672"/></g><path d="m24 280h392a0 0 0 0 1 0 0v32a0 0 0 0 1 0 0h-372a20 20 0 0 1 -20-20v-12a0 0 0 0 1 0 0z" fill="#fed672"/><g><path d="m372 488h-296a20 20 0 0 1 -20-20v-156h336v156a20 20 0 0 1 -20 20z" fill="#fa5d3f"/><circle cx="72" cy="440" fill="#fed672" r="48"/><circle cx="72" cy="440" fill="#fa5d3f" r="16"/></g></g><g><path d="m154 272h116a10 10 0 0 1 10 10v134a0 0 0 0 1 0 0h-136a0 0 0 0 1 0 0v-134a10 10 0 0 1 10-10z" fill="#c85aed"/><path d="m144 344h136v32h-136z" fill="#fdf8ff"/></g><g><path d="m394 40h12a10 10 0 0 1 10 10v302a0 0 0 0 1 0 0h-32a0 0 0 0 1 0 0v-302a10 10 0 0 1 10-10z" fill="#c85aed"/><path d="m434.6482 344h-69.2964a10 10 0 0 0 -8.3205 4.453l-45.0313 67.547v72h176v-72l-45.0313-67.547a10 10 0 0 0 -8.3205-4.453z" fill="#fed672"/><path d="m312 424h176v64h-176z" fill="#c85aed"/><path d="m312 416h176v16h-176z" fill="#dea3f7"/><path d="m368 376h16v16h-16z" fill="#fffefa"/><path d="m416 376h16v16h-16z" fill="#fffefa"/><g fill="#dea3f7"><path d="m352 448h16v40h-16z"/><path d="m432 448h16v40h-16z"/><path d="m392 448h16v40h-16z"/></g></g></g><g fill="#fed672"><g><path d="m456 128h16v16h-16z"/><path d="m456 160h16v16h-16z"/><path d="m440 144h16v16h-16z"/><path d="m472 144h16v16h-16z"/></g><g><path d="m56 40h16v16h-16z"/><path d="m56 72h16v16h-16z"/><path d="m40 56h16v16h-16z"/><path d="m72 56h16v16h-16z"/></g></g></g></svg>