<?xml version="1.0" encoding="utf-8"?>
<!-- Svg Vector Icons : http://www.onlinewebfonts.com/icon -->
<!DOCTYPE svg PUBLIC "-//W3C//DTD SVG 1.1//EN" "http://www.w3.org/Graphics/SVG/1.1/DTD/svg11.dtd">
<svg version="1.1" xmlns="http://www.w3.org/2000/svg" xmlns:xlink="http://www.w3.org/1999/xlink" x="0px" y="0px" viewBox="0 0 1000 1000" enable-background="new 0 0 1000 1000" xml:space="preserve">
<metadata> Svg Vector Icons : http://www.onlinewebfonts.com/icon </metadata>
<g><path d="M923.4,557.7c19.2-29.1,28.8-61.1,28.8-96c0-40.4-14.9-75.6-44.7-105.4c-29.8-29.8-65.2-44.8-106-44.8H697.9c18.8-38.9,28.3-76.6,28.3-113.1c0-45.9-6.9-82.4-20.6-109.5c-13.7-27.1-33.8-47-60.1-59.8C619.2,16.4,589.5,10,556.5,10c-20,0-37.7,7.3-53,21.8c-16.9,16.5-29.1,37.7-36.5,63.6c-7.5,25.9-13.5,50.7-18,74.5c-4.5,23.8-11.5,40.5-20.9,50.4c-19.2,20.8-40.2,45.9-63,75.4c-39.7,51.4-66.6,81.9-80.7,91.3H123.1c-20.8,0-38.6,7.4-53.3,22.1c-14.7,14.7-22.1,32.5-22.1,53.3v376.9c0,20.8,7.4,38.6,22.1,53.3c14.7,14.7,32.5,22.1,53.3,22.1h169.6c8.6,0,35.7,7.8,81.3,23.5c48.3,16.9,90.8,29.7,127.5,38.6c36.7,8.8,73.9,13.3,111.6,13.3h54.8H689c55.4,0,99.9-15.8,133.7-47.4c33.8-31.6,50.4-74.7,50.1-129.3c23.6-30.2,35.3-65.2,35.3-104.8c0-8.6-0.6-17.1-1.8-25.3c14.9-26.3,22.4-54.6,22.4-84.8C928.7,584.2,927,570.7,923.4,557.7z M187.3,828c-7.5,7.5-16.3,11.2-26.5,11.2c-10.2,0-19-3.7-26.5-11.2c-7.5-7.5-11.2-16.3-11.2-26.5c0-10.2,3.7-19,11.2-26.5s16.3-11.2,26.5-11.2c10.2,0,19,3.7,26.5,11.2c7.5,7.5,11.2,16.3,11.2,26.5C198.5,811.7,194.8,820.6,187.3,828z M864.3,510c-8.4,18.1-18.9,27.3-31.5,27.7c5.9,6.7,10.8,16,14.7,28c3.9,12,5.9,22.9,5.9,32.7c0,27.1-10.4,50.4-31.2,70.1c7.1,12.6,10.6,26.1,10.6,40.6c0,14.5-3.4,29-10.3,43.3c-6.9,14.3-16.2,24.6-28,30.9c2,11.8,2.9,22.8,2.9,33c0,65.6-37.7,98.3-113.1,98.3h-71.2c-51.4,0-118.6-14.3-201.4-43c-2-0.8-7.7-2.8-17.1-6.2c-9.4-3.3-16.4-5.8-20.9-7.4c-4.5-1.6-11.4-3.8-20.6-6.8c-9.2-2.9-16.7-5.1-22.4-6.5c-5.7-1.4-12.2-2.6-19.4-3.8c-7.3-1.2-13.4-1.8-18.5-1.8h-18.8V462.3h18.8c6.3,0,13.3-1.8,20.9-5.3c7.7-3.5,15.5-8.8,23.6-15.9c8.1-7.1,15.6-14,22.7-20.9c7.1-6.9,14.9-15.5,23.6-25.9c8.6-10.4,15.4-18.8,20.3-25c4.9-6.3,11.1-14.3,18.5-24.2c7.5-9.8,12-15.7,13.5-17.7c21.6-26.7,36.7-44.6,45.3-53.6c16.1-16.9,27.8-38.4,35-64.5c7.3-26.1,13.3-50.8,18-73.9c4.7-23.2,12.2-39.9,22.4-50.1c37.7,0,62.8,9.2,75.4,27.7c12.6,18.5,18.8,46.9,18.8,85.4c0,23.2-9.4,54.7-28.3,94.5c-18.8,39.9-28.3,71.2-28.3,93.9h207.3c19.6,0,37.1,7.6,52.4,22.7c15.3,15.1,23,32.7,23,52.7C876.9,476.1,872.7,492,864.3,510z"/></g>
</svg>