<svg id="Capa_1" enable-background="new 0 0 512 512" height="512" viewBox="0 0 512 512" width="512" xmlns="http://www.w3.org/2000/svg"><g><g><path clip-rule="evenodd" d="m194.577 232.341v-157.715c3.475 19.273-87.776-44.882-96.127-51.102l.117 208.817 48.367 25.901z" fill="#fe8d94" fill-rule="evenodd"/></g><g><path clip-rule="evenodd" d="m194.577 74.626c.496-14.513-8.439-33.698-24.674-49.934-23.185-23.186-52.473-31.537-65.38-18.601-4.292 4.293-6.249 10.366-6.074 17.433.292 14.25 9.169 32.442 24.674 47.948 23.185 23.215 52.444 31.537 65.38 18.601 3.884-3.884 5.841-9.228 6.074-15.447z" fill="#fca7ad" fill-rule="evenodd"/></g><g><path clip-rule="evenodd" d="m66.358 305.052h160.281v159.088h-160.281z" fill="#7e707d" fill-rule="evenodd"/></g><g><path clip-rule="evenodd" d="m226.639 506.423v-52.591h-160.281v52.591c0 3.066 1.956 5.577 4.322 5.577h151.667c2.365 0 4.292-2.511 4.292-5.577z" fill="#fde588" fill-rule="evenodd"/></g><g><path clip-rule="evenodd" d="m218.142 284.144v-46.547c0-2.891-2.365-5.256-5.227-5.256h-18.338-96.011-18.454c-2.891 0-5.227 2.365-5.227 5.256v46.547z" fill="#eff6ff" fill-rule="evenodd"/></g><g><path clip-rule="evenodd" d="m466.374 242.094c0-24.996-20.44-45.437-45.436-45.437h-69.38c-24.995 0-45.465 20.441-45.465 45.437v63.366h160.281z" fill="#7e707d" fill-rule="evenodd"/></g><g><path clip-rule="evenodd" d="m466.374 506.831v-175.936h-160.281v175.937c0 2.833 2.336 5.169 5.168 5.169h149.973c2.833-.001 5.14-2.337 5.14-5.17z" fill="#7e707d" fill-rule="evenodd"/></g><g><path clip-rule="evenodd" d="m306.093 295.152h160.281v46.05h-160.281z" fill="#fde588" fill-rule="evenodd"/></g><g><path clip-rule="evenodd" d="m184.766 237.597v36.239h8.526 24.849v-36.239c0-2.891-2.365-5.256-5.227-5.256h-18.338-15.038c2.863 0 5.228 2.365 5.228 5.256z" fill="#d9eeff" fill-rule="evenodd"/></g><g><path clip-rule="evenodd" d="m193.292 315.33h33.347v138.501h-33.347z" fill="#6a5c6b" fill-rule="evenodd"/></g><g><path clip-rule="evenodd" d="m193.292 453.831v52.591c0 3.066-1.956 5.577-4.322 5.577h33.376c2.365 0 4.292-2.511 4.292-5.577v-52.591z" fill="#fdd76f" fill-rule="evenodd"/></g><g><path clip-rule="evenodd" d="m420.266 242.094v53.058h46.107v-53.058c0-24.996-20.44-45.437-45.436-45.437h-46.137c24.997 0 45.466 20.441 45.466 45.437z" fill="#6a5c6b" fill-rule="evenodd"/></g><g><path clip-rule="evenodd" d="m420.266 295.152h46.107v46.05h-46.107z" fill="#fdd76f" fill-rule="evenodd"/></g><g><path clip-rule="evenodd" d="m420.266 341.203v165.629c0 2.833-2.336 5.169-5.168 5.169h46.137c2.832 0 5.139-2.336 5.139-5.169v-165.629z" fill="#6a5c6b" fill-rule="evenodd"/></g><g><path clip-rule="evenodd" d="m159.42 94.249v138.092h20.119 15.038v-155.905c-.058.175-.117.321-.175.467-.584 5.256-2.511 9.782-5.898 13.17-6.512 6.512-17.141 7.621-29.084 4.176z" fill="#ff6d75" fill-rule="evenodd"/></g><g><path clip-rule="evenodd" d="m247.4 294.598c0-11.418-9.344-20.762-20.761-20.762h-8.497-143.257-8.526c-11.417 0-20.732 9.344-20.732 20.762s9.315 20.733 20.732 20.733h160.281c11.416-.001 20.76-9.316 20.76-20.733z" fill="#fde588" fill-rule="evenodd"/></g><g><path clip-rule="evenodd" d="m206.432 278.566c4.614 3.825 7.592 9.607 7.592 16.031 0 11.418-9.344 20.733-20.732 20.733h33.347c11.417 0 20.761-9.315 20.761-20.733s-9.344-20.762-20.761-20.762h-8.497-24.849c4.963.001 9.548 1.782 13.139 4.731z" fill="#fdd76f" fill-rule="evenodd"/></g></g></svg>