<svg id="Capa_1" enable-background="new 0 0 512 512" height="512" viewBox="0 0 512 512" width="512" xmlns="http://www.w3.org/2000/svg"><g><path d="m373.817 487.705 3.681-58.644h-259.228l3.68 58.644c.858 13.657 12.184 24.295 25.868 24.295h200.131c13.684 0 25.011-10.638 25.868-24.295z" fill="#7acaa6"/><path d="m336.614 429.061-3.681 58.644c-.856 13.657-12.183 24.295-25.867 24.295h40.883c13.684 0 25.011-10.638 25.867-24.295l3.681-58.644z" fill="#7acaa6"/><path d="m281.287 424.587h-55.052c-4.552 0-8.241-3.69-8.241-8.241v-394.065c0-4.552 3.69-8.241 8.241-8.241h55.052c4.552 0 8.241 3.69 8.241 8.241v394.064c.001 4.552-3.689 8.242-8.241 8.242z" fill="#b2caec"/><path d="m140.061 80.089h54.429v356.118h-54.429z" fill="#0473ce" transform="matrix(.996 -.087 .087 .996 -21.863 15.561)"/><path d="m178.867 78.394-54.221 4.744-3.569-40.795c-.649-7.415 4.836-13.952 12.252-14.601l27.369-2.394c7.415-.649 13.952 4.836 14.601 12.252z" fill="#e2e2e2"/><path d="m315.995 88.019h43.543v322.424h-43.543z" fill="#e94444" transform="matrix(.996 .087 -.087 .996 23.007 -28.49)"/><path d="m375.976 62.3-43.377-3.795 4.109-46.972c.608-6.951 6.736-12.093 13.687-11.485l18.205 1.594c6.951.608 12.093 6.736 11.485 13.687z" fill="#ee6161"/><path d="m396.961 92.582-70.185-6.14c-4.708-.412-8.19-4.562-7.779-9.27l.978-11.181c.412-4.708 4.562-8.19 9.27-7.779l61.661 5.395c4.708.412 8.19 4.562 7.779 9.27z" fill="#5a5a5a"/><g><path d="m389.019 191.194c-.226 0-.454-.01-.682-.03-4.251-.372-7.395-4.12-7.024-8.371l7.951-90.885c.372-4.251 4.137-7.384 8.37-7.024 4.251.372 7.395 4.12 7.024 8.371l-7.951 90.885c-.352 4.022-3.725 7.054-7.688 7.054z" fill="#5a5a5a"/></g><g fill="#82aee3"><path d="m247.884 165.008h-29.89v15.453h29.89c4.268 0 7.726-3.459 7.726-7.726s-3.458-7.727-7.726-7.727z"/><path d="m247.884 126.803h-29.89v15.453h29.89c4.268 0 7.726-3.459 7.726-7.726s-3.458-7.727-7.726-7.727z"/><path d="m247.884 88.599h-29.89v15.453h29.89c4.268 0 7.726-3.459 7.726-7.726.001-4.268-3.458-7.727-7.726-7.727z"/><path d="m247.884 50.395h-29.89v15.453h29.89c4.268 0 7.726-3.459 7.726-7.726s-3.458-7.727-7.726-7.727z"/></g><path d="m404.658 93.255-77.474-6.778c-4.933-.432-8.582-4.78-8.151-9.713l.907-10.366c.432-4.933 4.78-8.582 9.713-8.151l68.542 5.997c4.933.432 8.582 4.78 8.151 9.713z" fill="#5a5a5a"/><path d="m120.483 464.31h254.802l14.839-236.429c.45-7.163-5.239-13.22-12.416-13.22h-259.648c-7.177 0-12.866 6.057-12.416 13.22z" fill="#22b27f"/><path d="m377.707 214.661h-40.883c7.177 0 12.866 6.057 12.416 13.22l-14.838 236.429h40.883l14.839-236.429c.449-7.163-5.24-13.22-12.417-13.22z" fill="#09a76d"/></g></svg>