<svg id="Capa_1" enable-background="new 0 0 512 512" height="512" viewBox="0 0 512 512" width="512" xmlns="http://www.w3.org/2000/svg"><g><g><path d="m270.722 206.878h-29.859v-90.017c0-31.79 25.863-57.654 57.653-57.654s57.653 25.863 57.653 57.654c0 15.62 12.708 28.327 28.327 28.327h1.838c16.633 0 30.165-13.532 30.165-30.165v-115.023h29.859v115.023c0 33.098-26.927 60.024-60.024 60.024h-1.838c-32.084 0-58.186-26.102-58.186-58.186 0-15.326-12.469-27.795-27.794-27.795s-27.794 12.469-27.794 27.795z" fill="#f75f79"/></g><g><path d="m255.896 191.948c-26.091 0-51.128 9.637-70.428 26.794-3.471-1.903-7.071-3.593-10.776-5.055-24.274-9.583-51.676-8.579-75.183 2.758-23.419 11.293-41.222 31.998-48.884 56.835l-46.249 133.39c-6.234 17.98-5.795 37.619 1.237 55.303 7.032 17.683 20.2 32.262 37.078 41.051 11.618 6.047 24.177 8.976 36.621 8.976 21.99 0 43.624-9.145 59.077-26.377l79.605-88.767c9.671-10.782 23.523-16.967 38.006-16.967l25.53-88.155-25.53-99.783c-.035 0-.069-.003-.104-.003z" fill="#edf5ff"/><path d="m507.624 406.67-46.25-133.388c-7.662-24.837-25.465-45.542-48.884-56.835-23.507-11.335-50.91-12.341-75.182-2.758-3.75 1.48-7.393 3.193-10.904 5.126-19.284-17.18-44.308-26.837-70.404-26.863v187.938c14.482 0 28.335 6.185 38.005 16.967l79.605 88.767c24.199 26.982 63.551 34.137 95.697 17.399 16.879-8.789 30.047-23.367 37.079-41.051 7.033-17.683 7.472-37.323 1.238-55.302z" fill="#d6e8fd"/></g><g><g><g><g><path d="m118.263 282.045h29.859v29.859h-29.859z" fill="#fed943"/></g><g><g><path d="m118.263 341.763h29.859v29.859h-29.859z" fill="#7d89e5"/></g><g><path d="m148.122 311.904h29.859v29.859h-29.859z" fill="#83d947"/></g></g><g><path d="m88.404 311.904h29.859v29.859h-29.859z" fill="#f75f79"/></g></g><g><path d="m382.104 371.622c-24.696 0-44.789-20.092-44.789-44.789s20.092-44.789 44.789-44.789 44.789 20.092 44.789 44.789-20.092 44.789-44.789 44.789z" fill="#bcdefd"/></g><g><path d="m220.887 251.504v29.859h35.113l9.931-16.628-9.931-13.231z" fill="#d6e8fd"/><path d="m256 251.504h34.905v29.859h-34.905z" fill="#bcdefd"/><path d="m240.967 407.964h15.033l8.131-43.63-8.131-43.472h-15.033z" fill="#384e75"/></g></g></g><path d="m256 320.862h14.826v87.103h-14.826z" fill="#2a3860"/></g></svg>